<svg xmlns="http://www.w3.org/2000/svg" viewBox="0 0 354 605" width="354" height="605" role="img" aria-label="RemoteColumn layout wireframe">
  <title>RemoteColumn — layout wireframe (slots + tokens)</title>
  <rect width="354" height="605" fill="#ffffff"/>
  <g>
    <rect x="0" y="0" width="354" height="605" fill="none" fill-opacity="0" stroke="#5B6470" stroke-width="1" stroke-opacity="0.5"/>
  </g>
  <g>
    <rect x="0" y="0" width="354" height="605" fill="none" fill-opacity="0" stroke="#2E7D6B" stroke-width="1" stroke-opacity="0.5"/>
  </g>
  <g>
    <path d="M77,0 H277 A77,77 0 0 1 354,77 V528 A77,77 0 0 1 277,605 H77 A77,77 0 0 1 0,528 V77 A77,77 0 0 1 77,0 Z" fill="none" fill-opacity="0" stroke="#8E6BA8" stroke-width="1.5" stroke-opacity="1"/>
  </g>
  <g>
    <rect x="0" y="0" width="354" height="605" fill="none" fill-opacity="0" stroke="#B0813B" stroke-width="1" stroke-opacity="0.5"/>
  </g>
  <g>
    <rect x="33" y="33" width="288" height="539" fill="#F3EDF7" fill-opacity="1" stroke="#3B72A8" stroke-width="1.5" stroke-opacity="1"/>
    <text x="36" y="45" font-family="system-ui, sans-serif" font-size="9" fill="#3B72A8">#FFF3EDF7  pad 12.0dp</text>
  </g>
  <g>
    <rect x="33" y="33" width="288" height="539" fill="none" fill-opacity="0" stroke="#A85B6B" stroke-width="1" stroke-opacity="0.5"/>
  </g>
  <g>
    <rect x="33" y="33" width="147" height="64" fill="none" fill-opacity="0" stroke="#4F8A4A" stroke-width="1" stroke-opacity="0.5"/>
  </g>
  <g>
    <rect x="33" y="97" width="11" height="11" fill="none" fill-opacity="0" stroke="#4F8A4A" stroke-width="1" stroke-opacity="0.5"/>
  </g>
  <g>
    <rect x="33" y="108" width="141" height="45" fill="none" fill-opacity="0" stroke="#4F8A4A" stroke-width="1" stroke-opacity="0.5"/>
  </g>
  <g>
    <rect x="33" y="153" width="22" height="22" fill="none" fill-opacity="0" stroke="#4F8A4A" stroke-width="1" stroke-opacity="0.5"/>
  </g>
  <g>
    <rect x="33" y="175" width="88" height="88" fill="#6750A4" fill-opacity="1" stroke="#4F8A4A" stroke-width="1.5" stroke-opacity="1"/>
    <text x="36" y="187" font-family="system-ui, sans-serif" font-size="9" fill="#4F8A4A">#FF6750A4</text>
  </g>
</svg>
