<svg xmlns="http://www.w3.org/2000/svg" viewBox="0 0 555 277" width="555" height="277" role="img" aria-label="WidgetTitle layout wireframe">
  <title>WidgetTitle — layout wireframe (slots + tokens)</title>
  <rect width="555" height="277" fill="#ffffff"/>
  <g>
    <rect x="0" y="0" width="555" height="277" fill="none" fill-opacity="0" stroke="#5B6470" stroke-width="1" stroke-opacity="0.5"/>
  </g>
  <g>
    <rect x="0" y="0" width="555" height="277" fill="none" fill-opacity="0" stroke="#2E7D6B" stroke-width="1" stroke-opacity="0.5"/>
  </g>
  <g>
    <path d="M77,0 H478 A77,77 0 0 1 555,77 V200 A77,77 0 0 1 478,277 H77 A77,77 0 0 1 0,200 V77 A77,77 0 0 1 77,0 Z" fill="none" fill-opacity="0" stroke="#8E6BA8" stroke-width="1.5" stroke-opacity="1"/>
  </g>
  <g>
    <rect x="0" y="0" width="555" height="277" fill="none" fill-opacity="0" stroke="#B0813B" stroke-width="1" stroke-opacity="0.5"/>
  </g>
  <g>
    <rect x="33" y="33" width="489" height="211" fill="#F3EDF7" fill-opacity="1" stroke="#3B72A8" stroke-width="1.5" stroke-opacity="1"/>
    <text x="36" y="45" font-family="system-ui, sans-serif" font-size="9" fill="#3B72A8">#FFF3EDF7  pad 12.0dp</text>
  </g>
  <g>
    <rect x="33" y="107" width="349" height="64" fill="none" fill-opacity="0" stroke="#A85B6B" stroke-width="1" stroke-opacity="0.5"/>
  </g>
</svg>
