<svg xmlns="http://www.w3.org/2000/svg" viewBox="0 0 354 277" width="354" height="277" role="img" aria-label="WidgetButton layout wireframe">
  <title>WidgetButton — layout wireframe (slots + tokens)</title>
  <rect width="354" height="277" fill="#ffffff"/>
  <g>
    <rect x="0" y="0" width="354" height="277" fill="none" fill-opacity="0" stroke="#5B6470" stroke-width="1" stroke-opacity="0.5"/>
  </g>
  <g>
    <rect x="0" y="0" width="354" height="277" fill="none" fill-opacity="0" stroke="#2E7D6B" stroke-width="1" stroke-opacity="0.5"/>
  </g>
  <g>
    <path d="M77,0 H277 A77,77 0 0 1 354,77 V200 A77,77 0 0 1 277,277 H77 A77,77 0 0 1 0,200 V77 A77,77 0 0 1 77,0 Z" fill="none" fill-opacity="0" stroke="#8E6BA8" stroke-width="1.5" stroke-opacity="1"/>
  </g>
  <g>
    <rect x="0" y="0" width="354" height="277" fill="none" fill-opacity="0" stroke="#B0813B" stroke-width="1" stroke-opacity="0.5"/>
  </g>
  <g>
    <rect x="126" y="95" width="102" height="88" fill="#6750A4" fill-opacity="1" stroke="#3B72A8" stroke-width="1.5" stroke-opacity="1"/>
    <text x="129" y="107" font-family="system-ui, sans-serif" font-size="9" fill="#3B72A8">#FF6750A4  pad ·</text>
  </g>
  <g>
    <rect x="126" y="113" width="102" height="52" fill="none" fill-opacity="0" stroke="#A85B6B" stroke-width="1" stroke-opacity="0.5"/>
  </g>
</svg>
